<?xml version="1.0" encoding="UTF-8" standalone="no"?>
<!-- Created with Inkscape (http://www.inkscape.org/) -->

<svg
   xmlns:dc="http://purl.org/dc/elements/1.1/"
   xmlns:cc="http://creativecommons.org/ns#"
   xmlns:rdf="http://www.w3.org/1999/02/22-rdf-syntax-ns#"
   xmlns:svg="http://www.w3.org/2000/svg"
   xmlns="http://www.w3.org/2000/svg"
   xmlns:sodipodi="http://sodipodi.sourceforge.net/DTD/sodipodi-0.dtd"
   xmlns:inkscape="http://www.inkscape.org/namespaces/inkscape"
   width="20"
   height="20"
   viewBox="0 0 5.2916666 5.2916668"
   version="1.1"
   id="svg8"
   inkscape:version="0.92.3 (2405546, 2018-03-11)"
   sodipodi:docname="advancedWeapon.svg">
  <defs
     id="defs2" />
  <sodipodi:namedview
     id="base"
     pagecolor="#ffffff"
     bordercolor="#666666"
     borderopacity="1.0"
     inkscape:pageopacity="0.0"
     inkscape:pageshadow="2"
     inkscape:zoom="22.4"
     inkscape:cx="8.2509115"
     inkscape:cy="11.79114"
     inkscape:document-units="mm"
     inkscape:current-layer="layer1"
     showgrid="false"
     units="px"
     inkscape:window-width="1366"
     inkscape:window-height="708"
     inkscape:window-x="0"
     inkscape:window-y="0"
     inkscape:window-maximized="1" />
  <metadata
     id="metadata5">
    <rdf:RDF>
      <cc:Work
         rdf:about="">
        <dc:format>image/svg+xml</dc:format>
        <dc:type
           rdf:resource="http://purl.org/dc/dcmitype/StillImage" />
        <dc:title></dc:title>
      </cc:Work>
    </rdf:RDF>
  </metadata>
  <g
     inkscape:label="Calque 1"
     inkscape:groupmode="layer"
     id="layer1"
     transform="translate(0,-291.70832)">
    <circle
       style="fill:#ff0000;stroke-width:0.28096229"
       id="path10"
       cx="2.657645"
       cy="294.35416"
       r="2.6340215" />
    <circle
       style="fill:#000000;stroke-width:0.37237653"
       id="path12"
       cx="1.8190104"
       cy="293.19662"
       r="0.67327011" />
    <ellipse
       style="fill:#000000;stroke-width:0.30736142"
       id="path14"
       cx="3.5277567"
       cy="293.20422"
       rx="0.69293547"
       ry="0.64491016" />
    <ellipse
       style="fill:#000000;fill-opacity:0.92941176;stroke-width:0.31270701"
       id="path16"
       cx="2.6812687"
       cy="295.37729"
       rx="2.0692871"
       ry="1.3982897" />
    <ellipse
       style="fill:#ff0000;fill-opacity:0.92941176;stroke-width:0.40290517"
       id="path18"
       cx="2.7703674"
       cy="295.383"
       rx="1.7133749"
       ry="1.1329445" />
    <path
       style="fill:none;stroke:#000000;stroke-width:0.26458332px;stroke-linecap:butt;stroke-linejoin:miter;stroke-opacity:1"
       d="m 1.7835751,292.18079 c 0.083152,0.0139 0.04815,0.004 0.1063058,0.0236 0.023624,0.008 0.048115,0.0135 0.070871,0.0236 0.012973,0.006 0.022143,0.0186 0.035435,0.0236 0.1479009,0.0555 -0.00751,-0.0201 0.094494,0.0236 0.015749,0.008 0.031498,0.0157 0.047247,0.0236 0.00394,0 0.00808,-10e-4 0.011812,0 0.00835,0.003 0.015082,0.01 0.023624,0.0118 0.00764,0.002 0.016153,-0.002 0.023624,0 0.00528,0.002 0.00641,0.0105 0.011812,0.0118 0.011459,0.003 0.023976,-0.003 0.035435,0 0.0054,0.001 0.00787,0.008 0.011812,0.0118 0.019229,0.0192 0.022059,0.027 0.047247,0.0354 0.00374,10e-4 0.00787,0 0.011812,0 0.020133,0 0.021133,-0.001 0.047247,0.0118 0.014174,0.007 0.021261,0.0283 0.035435,0.0354 0.011136,0.006 0.024299,0.006 0.035435,0.0118 0.00996,0.005 0.013663,0.0186 0.023624,0.0236 0.00352,0.002 0.00787,0 0.011812,0 0.00787,0.004 0.016298,0.007 0.023624,0.0118 0.029381,0.0196 0.00136,0.003 0.011812,0.0236 0.00249,0.005 0.00932,0.007 0.011812,0.0118 0.00352,0.007 -0.00249,0.0161 0,0.0236 0.00715,0.0215 0.010109,0.0219 0.023624,0.0354"
       id="path20"
       inkscape:connector-curvature="0" />
    <path
       style="fill:none;stroke:#000000;stroke-width:0.26458332px;stroke-linecap:butt;stroke-linejoin:miter;stroke-opacity:1"
       d="m 2.8584448,292.51152 c 0.019688,-0.0158 0.03768,-0.0339 0.059059,-0.0473 0.010559,-0.007 0.024299,-0.006 0.035435,-0.0118 0.01047,-0.005 0.024683,-0.0283 0.035435,-0.0354 0.00733,-0.005 0.015272,-0.009 0.023625,-0.0118 0.00374,-10e-4 0.00854,0.002 0.011811,0 0.00927,-0.006 0.015748,-0.0158 0.023625,-0.0236 0.013171,-0.0132 0.047388,-0.0513 0.059059,-0.0591 0.00328,-0.002 0.00829,0.002 0.011811,0 0.00498,-0.002 0.00683,-0.009 0.011811,-0.0118 0.00352,-0.002 0.00787,0 0.011811,0 0.00787,0 0.015901,0.002 0.023625,0 0.012208,-0.002 0.023357,-0.009 0.035435,-0.0118 0.00804,-0.002 0.028976,0.003 0.035435,0 0.00498,-0.002 0.00653,-0.01 0.011811,-0.0118 0.00747,-0.002 0.016312,0.003 0.023625,0 0.1101675,-0.0735 -0.016579,0.002 0.059059,-0.0236 0.010565,-0.004 0.013663,-0.0186 0.023625,-0.0236 0.00352,-0.002 0.00829,0.002 0.011811,0 0.00498,-0.002 0.00683,-0.009 0.011811,-0.0118 0.00704,-0.004 0.016581,0.004 0.023625,0 0.00996,-0.005 0.013663,-0.0187 0.023625,-0.0236 0.00233,-10e-4 0.044601,0 0.011811,0"
       id="path22"
       inkscape:connector-curvature="0" />
    <path
       style="fill:none;stroke:#000000;stroke-width:0.26458332px;stroke-linecap:butt;stroke-linejoin:miter;stroke-opacity:1"
       d="m 0.68508183,292.64145 c -0.008407,-0.0619 -0.003936,-0.0512 -0.0354353,-0.0827 -0.003937,-0.004 -0.009322,-0.007 -0.0118118,-0.0118 -0.001759,-0.004 0,-0.008 0,-0.0118 0,-0.004 0,-0.008 0,-0.0118 0,-0.004 0,-0.008 0,-0.0118 0,-0.004 0.001759,-0.008 0,-0.0118 -0.005235,-0.0105 -0.028267,-0.0247 -0.0354353,-0.0354 -0.004884,-0.007 -0.006928,-0.0163 -0.0118117,-0.0236 -0.006177,-0.009 -0.0174462,-0.0144 -0.0236235,-0.0236 -0.004884,-0.007 -0.006928,-0.0163 -0.0118117,-0.0236 -0.003089,-0.005 -0.009322,-0.007 -0.0118118,-0.0118 -0.001759,-0.004 0,-0.008 0,-0.0118 -0.003937,-0.0118 -0.004905,-0.0251 -0.0118118,-0.0354 -0.002183,-0.003 -0.009028,0.003 -0.0118118,0 -0.002784,-0.003 9.5514e-4,-0.008 0,-0.0118 -0.00302,-0.0121 -0.008792,-0.0234 -0.0118118,-0.0354 -9.5514e-4,-0.004 -0.003937,-0.0118 0,-0.0118 0.003937,0 0.002784,0.0146 0,0.0118 -0.046098,-0.0461 0.002734,-0.006 -0.0118116,-0.0354 -0.00249,-0.005 -0.009322,-0.007 -0.0118118,-0.0118 -0.001759,-0.004 0.002183,-0.009 0,-0.0118 -0.034153,-0.0512 -0.0152404,0.003 -0.0354352,-0.0473 -0.0434079,-0.10852 0.010335,0.004 -0.0236235,-0.0473 -0.004884,-0.007 -0.005586,-0.0174 -0.0118118,-0.0236 -0.002784,-0.003 -0.0118118,0.004 -0.0118118,0 0,-0.004 0.007875,0 0.0118118,0 -0.001683,-0.0333 0.0259308,-0.0544 0.0354353,-0.0829 0.001245,-0.004 -0.001761,-0.008 0,-0.0118 0.0270289,-0.0541 -0.004896,0.0501 0.0236235,-0.0354 0.001245,-0.004 -0.001761,-0.008 0,-0.0118 0.005812,-0.0116 0.0414355,-0.0356 0.047247,-0.0473 0.001761,-0.004 -0.001761,-0.008 0,-0.0118 0.00498,-0.01 0.0174462,-0.0144 0.0236235,-0.0236 0.004884,-0.007 0.006928,-0.0163 0.0118118,-0.0236 0.003089,-0.005 0.009322,-0.007 0.0118118,-0.0118 0.001761,-0.004 -0.001761,-0.008 0,-0.0118 0.00249,-0.005 0.007875,-0.008 0.0118118,-0.0118 0.003937,-0.004 0.007875,-0.008 0.0118118,-0.0118"
       id="path24"
       inkscape:connector-curvature="0" />
    <path
       style="fill:none;stroke:#000000;stroke-width:0.26458332px;stroke-linecap:butt;stroke-linejoin:miter;stroke-opacity:1"
       d="m 0.41341143,292.11015 c -0.031498,-8e-5 -0.062996,-1.5e-4 -0.094494,-2.3e-4 -0.003937,-0.004 -0.006832,-0.009 -0.0118118,-0.0118 -0.003522,-0.002 -0.00829,0.002 -0.0118118,0 -0.00498,-0.002 -0.007875,-0.008 -0.0118118,-0.0118 -0.003937,-0.004 -0.009322,-0.007 -0.0118118,-0.0118 -0.001759,-0.004 0.001762,-0.008 0,-0.0118 -0.00498,-0.01 -0.0174461,-0.0144 -0.0236234,-0.0236 -0.003937,-0.008 -0.007875,-0.0157 -0.0118118,-0.0236 0,-0.004 0.001761,-0.008 0,-0.0118 -0.00249,-0.005 -0.007875,-0.008 -0.0118118,-0.0118 -0.0135144,-0.0135 -0.0164726,-0.014 -0.0236235,-0.0354 -0.00249,-0.007 0.003522,-0.0166 0,-0.0236 -0.007087,-0.0142 -0.0283482,-0.0213 -0.0354353,-0.0354 -0.004725,-0.009 0.004725,-0.026 0,-0.0354 -0.00249,-0.005 -0.009322,-0.007 -0.0118118,-0.0118 -0.003522,-0.007 0.003522,-0.0166 0,-0.0236 -0.003154,-0.006 -0.0292168,-0.0292 -0.0354353,-0.0354"
       id="path26"
       inkscape:connector-curvature="0" />
    <path
       style="fill:none;stroke:#000000;stroke-width:0.26458332px;stroke-linecap:butt;stroke-linejoin:miter;stroke-opacity:1"
       d="m 0.48428192,292.22835 c -0.12203416,-0.0125 -0.0785381,-0.0121 -0.12992925,-0.0121 -0.003937,0 -0.00829,-0.002 -0.0118118,0 -0.0253476,0.0127 -0.0401665,0.0283 -0.0590588,0.0472 -0.003937,0.004 -0.008723,0.007 -0.0118118,0.0118 -0.004884,0.007 -0.006928,0.0163 -0.0118117,0.0236 -0.003089,0.005 -0.007875,0.008 -0.0118118,0.0118 -0.007874,0.008 -0.015749,0.0157 -0.0236235,0.0236 -0.003937,0.004 -0.009322,0.007 -0.0118118,0.0118 -0.003522,0.007 0.00249,0.0161 0,0.0236 -0.0285192,0.0856 0.003405,-0.0186 -0.0236235,0.0354 -0.001761,0.004 0.001761,0.008 0,0.0118 -0.00249,0.005 -0.009322,0.007 -0.0118118,0.0118 -0.0271451,0.0543 0.003062,0.0206 -0.0236235,0.0472"
       id="path28"
       inkscape:connector-curvature="0" />
    <path
       style="fill:none;stroke:#000000;stroke-width:0.26458332px;stroke-linecap:butt;stroke-linejoin:miter;stroke-opacity:1"
       d="m 4.5120906,292.73594 c 0.011811,-0.0276 0.023625,-0.0551 0.035435,-0.0827 0,-0.004 -0.00124,-0.008 0,-0.0118 0.00278,-0.008 0.00854,-0.0155 0.011811,-0.0236 0.013523,-0.0338 0.007,-0.0314 0.023625,-0.0591 0.0073,-0.0122 0.016319,-0.0233 0.023625,-0.0354 0.00453,-0.008 0.00693,-0.0163 0.011811,-0.0236 0.00309,-0.005 0.00932,-0.007 0.011811,-0.0118 0.00557,-0.0111 0.00541,-0.0248 0.011811,-0.0354 0.00573,-0.01 0.016941,-0.0147 0.023625,-0.0236 0.010565,-0.0141 0.013856,-0.0326 0.023625,-0.0472 0.011586,-0.0174 0.03566,-0.0299 0.047247,-0.0473 0.00488,-0.007 0.00693,-0.0163 0.011811,-0.0236 0.00309,-0.005 0.00932,-0.007 0.011811,-0.0118 0.00177,-0.004 -0.00235,-0.009 0,-0.0118 0.010023,-0.0134 0.023625,-0.0236 0.035435,-0.0354 0.00394,-0.004 0.00932,-0.007 0.011811,-0.0118 0.00352,-0.007 -0.00352,-0.0166 0,-0.0236 0.00249,-0.005 0.00787,-0.008 0.011811,-0.0118 0.011811,-0.0118 0.023625,-0.0236 0.035435,-0.0354 0.00394,-0.004 0.00872,-0.007 0.011811,-0.0118 0.00488,-0.007 0.00693,-0.0163 0.011811,-0.0236 0.00309,-0.005 0.00787,-0.008 0.011811,-0.0118 0.011811,-0.0118 0.023625,-0.0236 0.035435,-0.0354 -0.011811,-0.0198 -0.025162,-0.0388 -0.035432,-0.0594 -0.00226,-0.005 0,-0.056 0,-0.0709 0,-0.0709 0,-0.14174 0,-0.21261 0,-0.0176 -0.00176,-0.0151 0.011812,-0.0354 0.00795,-0.0119 0.023624,-0.0204 0.023624,-0.0118 0,0.004 -0.00903,-0.003 -0.011812,0 -0.00278,0.003 0.00125,0.008 0,0.0118 -0.00278,0.008 -0.00903,0.0153 -0.011812,0.0236 -0.00249,0.007 0.00249,0.0162 0,0.0236 -0.00278,0.008 -0.00787,0.0158 -0.011812,0.0236 -0.00394,0.008 -0.00653,0.0166 -0.011812,0.0236 -0.00668,0.009 -0.016942,0.0147 -0.023624,0.0236 -0.026023,0.006 -0.00624,0.0243 -0.011812,0.0354 -0.00249,0.005 -0.010051,0.007 -0.011812,0.0118 -0.00249,0.007 0.00191,0.016 0,0.0236 -0.00214,0.009 -0.00903,0.0153 -0.011812,0.0236 -0.00124,0.004 0.00176,0.008 0,0.0118 -0.00249,0.005 -0.00787,0.008 -0.011812,0.0118 -0.00394,0.004 -0.00624,0.0118 -0.011812,0.0118 -0.00394,0 0,-0.008 0,-0.0118 0,-0.0236 0,-0.0473 0,-0.0709 0,-0.004 0,-0.008 0,-0.0118 0,-0.004 -0.00176,-0.008 0,-0.0118 0.00249,-0.005 0.00787,-0.008 0.011812,-0.0118"
       id="path30"
       inkscape:connector-curvature="0" />
    <path
       style="fill:none;stroke:#000000;stroke-width:0.26458332px;stroke-linecap:butt;stroke-linejoin:miter;stroke-opacity:1"
       d="m 4.9254986,292.08664 c 0.039374,0.0196 0.076764,0.0438 0.1181211,0.0587 0.00524,0.002 0.00653,-0.0101 0.011811,-0.0118 0.00747,-0.002 0.015748,0 0.023625,0 0.00394,0 0.00829,0.002 0.011811,0 0.00498,-0.002 0.00718,-0.009 0.011811,-0.0118 0.00595,-0.026 0.024299,-0.006 0.035435,-0.0118 0.014174,-0.007 0.021262,-0.0283 0.035435,-0.0354 0.00352,-0.002 0.011811,-0.004 0.011811,0 0,0.004 -0.015748,0 -0.011811,0 0.00787,0 0.015748,0 0.023625,0"
       id="path32"
       inkscape:connector-curvature="0" />
    <path
       style="fill:none;stroke:#000000;stroke-width:0.26458332px;stroke-linecap:butt;stroke-linejoin:miter;stroke-opacity:1"
       d="m 4.9254986,292.08664 c -0.015748,0.055 -0.040135,0.10825 -0.047244,0.16502 -0.00119,0.009 0.030121,0.0248 0.035435,0.0354 0.00352,0.007 -0.00352,0.0166 0,0.0236 0.00451,0.009 0.032769,0.0274 0.035435,0.0354 0.00489,0.0147 -0.00388,0.0435 0,0.0591 0.00214,0.009 0.00903,0.0153 0.011811,0.0236 0.00354,0.0106 -0.00354,0.0248 0,0.0354 0.00177,0.005 0.00932,0.007 0.011811,0.0118 0.00177,0.004 -9.525e-4,0.008 0,0.0118 0.00302,0.0121 0.00624,0.0243 0.011811,0.0354 0.00249,0.005 0.00787,0.008 0.011811,0.0118 0.00394,0.004 0.00787,0.008 0.011811,0.0118"
       id="path34"
       inkscape:connector-curvature="0" />
    <path
       style="fill:none;stroke:#000000;stroke-width:0.26458332px;stroke-linecap:butt;stroke-linejoin:miter;stroke-opacity:1"
       d="m 4.346726,296.38578 c 0.00787,0.0197 0.014142,0.0401 0.023625,0.0591 0.00249,0.005 0.00932,0.007 0.011811,0.0118 0.00177,0.004 0,0.008 0,0.0118 0.00394,0.0118 0.00541,0.0248 0.011811,0.0354 0.011459,0.0191 0.033884,0.0294 0.047247,0.0472 0.010565,0.0141 0.011173,0.0348 0.023625,0.0473 0.02444,0.0244 -9.525e-4,-0.0374 0.023625,0.0118 0.00177,0.004 -0.00177,0.008 0,0.0118 0.00523,0.0105 0.028267,0.0247 0.035435,0.0354 0.028604,0.0429 -0.00346,0.008 0.023625,0.0354"
       id="path36"
       inkscape:connector-curvature="0" />
    <path
       style="fill:none;stroke:#000000;stroke-width:0.26458332px;stroke-linecap:butt;stroke-linejoin:miter;stroke-opacity:1"
       d="m 4.54753,296.69278 c 0.039371,-0.0354 0.076134,-0.0739 0.1181137,-0.1062 0.00987,-0.008 0.02476,-0.005 0.035435,-0.0118 0.00955,-0.006 0.014714,-0.0169 0.023625,-0.0236 0.00704,-0.005 0.016298,-0.007 0.023625,-0.0118 0.010192,-0.007 0.02621,-0.0262 0.035435,-0.0354 0.00394,-0.004 0.00683,-0.009 0.011811,-0.0118 0.00352,-0.002 0.00808,10e-4 0.011811,0 0.016703,-0.006 0.031498,-0.0157 0.047247,-0.0236"
       id="path38"
       inkscape:connector-curvature="0" />
    <path
       style="fill:none;stroke:#000000;stroke-width:0.26458332px;stroke-linecap:butt;stroke-linejoin:miter;stroke-opacity:1"
       d="m 4.54753,296.69278 c -1.9e-6,0.0538 0.012456,0.10511 -0.011816,0.15365 -0.00498,0.01 -0.020103,0.0131 -0.023625,0.0236 0,0.0538 0.00557,6.9e-4 -0.011811,0.0354 -0.00375,0.007 0.00384,0.0514 0,0.0591 -0.00249,0.005 -0.00787,0.008 -0.011811,0.0118"
       id="path40"
       inkscape:connector-curvature="0" />
    <path
       style="fill:none;stroke:#000000;stroke-width:0.26458332px;stroke-linecap:butt;stroke-linejoin:miter;stroke-opacity:1"
       d="m 0.83863467,296.33853 c -0.2234561,0.14897 0.0184346,-0.003 -0.1063058,0.0591 -0.00498,0.002 -0.007875,0.008 -0.0118118,0.0118 -0.007875,0.008 -0.0149275,0.0167 -0.0236236,0.0236 -0.0110852,0.009 -0.0240784,0.0151 -0.0354353,0.0236 -0.004455,0.003 -0.007037,0.009 -0.0118118,0.0118 -0.0150987,0.009 -0.0321484,0.0146 -0.047247,0.0236 -0.009549,0.006 -0.0136628,0.0187 -0.0236236,0.0236 -0.0111363,0.006 -0.0242991,0.006 -0.0354353,0.0118 -0.0194281,0.01 -0.016007,0.0375 -0.0354353,0.0473 -0.0290918,0.0145 0.010663,-0.0343 -0.0354353,0.0118 -0.006225,0.006 -0.006928,0.0163 -0.0118118,0.0236 -0.006177,0.009 -0.0186433,0.0137 -0.0236236,0.0236 -0.001759,0.004 0,0.008 0,0.0118 -0.007875,0.008 -0.0157491,0.0157 -0.0236236,0.0236 -0.0236233,-0.008 -0.0467176,-0.0175 -0.0708699,-0.0235 -0.007642,-0.002 -0.015749,0 -0.0236235,0 -0.0236235,0 -0.047247,0 -0.0708705,0 -0.062996,0 -0.12599207,0 -0.1889881,0"
       id="path42"
       inkscape:connector-curvature="0" />
    <path
       style="fill:none;stroke:#000000;stroke-width:0.26458332px;stroke-linecap:butt;stroke-linejoin:miter;stroke-opacity:1"
       d="m 0.43703446,296.64553 c 0.0314982,0.0512 0.0662113,0.10059 0.0944946,0.15366 0.003704,0.007 0,0.0157 0,0.0236 0,0.0236 0,0.0473 0,0.0709 0,0.0157 0,0.0315 0,0.0472 0,0.004 0.003937,0.0118 0,0.0118 -0.003937,0 0,-0.008 0,-0.0118"
       id="path44"
       inkscape:connector-curvature="0" />
    <path
       style="fill:none;stroke:#000000;stroke-width:0.26458332px;stroke-linecap:butt;stroke-linejoin:miter;stroke-opacity:1"
       d="m 2.126116,294.34234 c 0,0.0984 0,0.19686 0,0.2953 0,0.0165 0,0.0425 0,0.0591 0,0.008 -0.00292,0.0163 0,0.0236 0.00527,0.0132 0.019134,0.022 0.023624,0.0354 0.00374,0.0112 0,0.0236 0,0.0354 0,0.0118 0,0.0236 0,0.0354 0,0.0236 0,0.0473 0,0.0709 0,0.004 -9.551e-4,0.008 0,0.0118 0.00302,0.0121 0.00937,0.0232 0.011812,0.0354 0.00155,0.008 0,0.0157 0,0.0236 0,0.0118 0,0.0236 0,0.0354 0,0.004 -0.00176,0.008 0,0.0118 0.00249,0.005 0.00787,0.008 0.011812,0.0118 0.00394,0.004 0.00683,0.009 0.011812,0.0118 0.00352,0.002 0.00787,0 0.011812,0 0.00787,0 0.015749,0 0.023624,0 0.011812,0 0.023624,0 0.035435,0 0.00394,0 0.00829,0.002 0.011812,0 0.00498,-0.002 0.00653,-0.01 0.011812,-0.0118 0.081086,-0.027 -0.055018,0.0452 0.059058,-0.0118 0.00498,-0.002 0.00683,-0.009 0.011812,-0.0118 0.00265,-0.001 0.04444,0 0.047247,0 0.047247,0 0.094494,0 0.141741,0 0.1417412,0 0.2834822,0 0.4252232,0 0.023625,0 0.047247,0 0.07087,0 0.011811,0 0.023976,-0.003 0.035435,0 0.00854,0.002 0.015272,0.009 0.023625,0.0118 0.00374,10e-4 0.00787,0 0.011811,0 0.017082,0 0.070209,-0.002 0.082682,0 0.00863,0.002 0.015272,0.009 0.023625,0.0118 0.00374,10e-4 0.00787,0 0.011811,0 0.011811,0 0.023977,-0.003 0.035435,0 0.0054,10e-4 0.00683,0.009 0.011811,0.0118 0.00352,0.002 0.00787,0 0.011811,0 0.00787,0 0.015748,0 0.023625,0 0.00394,0 0.00787,0 0.011811,0 0.00394,0 0.011811,-0.004 0.011811,0 0,0.004 -0.011811,0.004 -0.011811,0 0,-0.006 0.00932,-0.007 0.011811,-0.0118 0.00177,-0.004 0,-0.008 0,-0.0118 0,-0.008 -0.00153,-0.0159 0,-0.0236 0.00243,-0.0122 0.00879,-0.0234 0.011811,-0.0354 0.00238,-0.01 0,-0.0573 0,-0.0591 0,-0.0236 0,-0.0472 0,-0.0709 0,-0.008 -0.00169,-0.0447 0,-0.0472 0.00618,-0.009 0.018643,-0.0137 0.023625,-0.0236 0.00704,-0.0141 -0.00498,-0.0323 0,-0.0472 0.00177,-0.005 0.010051,-0.007 0.011811,-0.0118 0.0018,-0.005 0,-0.0525 0,-0.0591 0,-0.0315 0,-0.063 0,-0.0945 0,-0.0135 -0.00306,-0.035 0,-0.0473 0.00214,-0.009 0.00903,-0.0153 0.011811,-0.0236 0.00418,-0.0125 -0.00418,-0.0347 0,-0.0472 0.013462,-0.0404 0.0098,-0.009 0.035435,-0.0473 0.00343,-0.005 -0.00312,-0.0292 0,-0.0354 0.010499,-0.021 0.020997,-0.003 0,-0.0236"
       id="path46"
       inkscape:connector-curvature="0" />
    <path
       style="fill:none;stroke:#000000;stroke-width:0.26458332px;stroke-linecap:butt;stroke-linejoin:miter;stroke-opacity:1"
       d="m 2.7285156,294.25966 c 0,0.0236 0,0.0473 0,0.0709 0,0.004 0.00177,0.008 0,0.0118 -0.00249,0.005 -0.010052,0.007 -0.011811,0.0118 -0.00249,0.007 0.00352,0.0166 0,0.0236 -0.00498,0.01 -0.017447,0.0144 -0.023625,0.0236 -0.00437,0.007 0.00249,0.0162 0,0.0236 -0.00278,0.008 -0.00903,0.0153 -0.011811,0.0236 -0.00249,0.007 0,0.0158 0,0.0236 0,0.0197 0,0.0394 0,0.0591 0,0.008 -0.00214,0.0548 0,0.0591 0.00249,0.005 0.00932,0.007 0.011811,0.0118 0.0018,0.004 0,0.0301 0,0.0354"
       id="path48"
       inkscape:connector-curvature="0" />
    <path
       style="fill:none;stroke:#000000;stroke-width:0.26458332px;stroke-linecap:butt;stroke-linejoin:miter;stroke-opacity:1"
       d="m 1.8780692,296.33853 c 0,-0.0197 -0.00217,-0.0395 0,-0.0591 0.00179,-0.0161 0.0098,-0.0311 0.011812,-0.0473 0.00184,-0.0147 -0.00344,-0.10781 0,-0.11812 0.00352,-0.0106 0.017894,-0.0141 0.023624,-0.0236 0.030574,-0.051 0.00152,-0.0179 0.011812,-0.0591 0.00214,-0.009 0.00968,-0.0151 0.011812,-0.0236 0.00191,-0.008 0,-0.0157 0,-0.0236 0,-0.004 -0.00176,-0.008 0,-0.0118 0.00249,-0.005 0.00932,-0.007 0.011812,-0.0118 0.00352,-0.007 -0.00437,-0.0171 0,-0.0236 0.025638,-0.0385 0.021972,-0.007 0.035435,-0.0473 0.00727,-0.0218 -0.018024,-0.006 0.011812,-0.0354 0.00278,-0.003 0.00787,0 0.011812,0 0.023624,0 0.047247,0 0.07087,0 0.062996,0 0.1259921,0 0.1889881,0 0.013534,0 0.091337,0.002 0.1063058,0 0.021894,-0.004 0.03978,-0.014 0.059059,-0.0236 0.00787,-0.004 0.01499,-0.0101 0.023624,-0.0118 0.011582,-0.002 0.023853,0.002 0.035435,0 0.017266,-0.003 0.030543,-0.0181 0.047247,-0.0236 0.00374,-10e-4 0.00787,0 0.011812,0 0.00787,0 0.015749,0 0.023624,0 0.011812,0 0.024468,0.004 0.035435,0 0.01034,-0.004 0.014358,-0.0174 0.023624,-0.0236 0.00328,-0.002 0.00787,0 0.011812,0 0.00787,0 0.015748,0 0.023625,0 0.01538,0 0.059033,0.002 0.07087,0 0.00863,-0.002 0.015081,-0.01 0.023625,-0.0118 0.011459,-0.003 0.023625,0 0.035435,0 0.023625,0 0.047247,0 0.07087,0 0.078745,0 0.1574901,0 0.2362351,0 0.031498,0 0.062996,0 0.094494,0 0.010866,0 0.024805,-0.002 0.035435,0 0.015917,0.003 0.031328,0.009 0.047247,0.0118 0.00386,7.7e-4 0.00787,0 0.011811,0 0.015748,0 0.031498,0 0.047247,0 0.00394,0 0.00787,0 0.011811,0 0.00394,0 0.00829,-0.002 0.011811,0 0.016169,0.008 0.019997,0.0345 0.023625,0.0472 0.00446,0.0156 0.00829,0.0314 0.011811,0.0472 0.00436,0.0196 0.00476,0.0403 0.011811,0.0591 0.00498,0.0133 0.017275,0.0227 0.023625,0.0354 0.011136,0.0223 0.010427,0.0497 0.023625,0.0709 0.09832,0.15731 0.026775,-0.008 0.047247,0.0945 0.00172,0.009 0.00787,0.0158 0.011811,0.0236 0.00787,0.0157 0.015748,0.0315 0.023625,0.0472 0.00394,0.008 0.00653,0.0166 0.011811,0.0236 0.013364,0.0178 0.034892,0.0287 0.047247,0.0472 0.0022,0.003 0,0.008 0,0.0118 0,0.008 -0.00191,0.016 0,0.0236 0.00214,0.009 0.00693,0.0163 0.011811,0.0236 0.00717,0.0107 0.030201,0.025 0.035435,0.0354 0.00177,0.004 0,0.008 0,0.0118"
       id="path50"
       inkscape:connector-curvature="0" />
    <path
       style="fill:none;stroke:#000000;stroke-width:0.26458332px;stroke-linecap:butt;stroke-linejoin:miter;stroke-opacity:1"
       d="m 2.7403274,295.92512 c -0.00394,0.0157 -0.00787,0.0315 -0.011811,0.0472 -0.00394,0.004 -0.010052,0.007 -0.011811,0.0118 -0.00225,0.007 0,0.0479 0,0.0591 0,0.0197 0,0.0394 0,0.0591 0,0.008 0,0.0158 0,0.0236 0,0.004 -0.00177,0.008 0,0.0118 0.00249,0.005 0.00932,0.007 0.011811,0.0118 0.00384,0.008 -0.00375,0.0516 0,0.0591 0.00249,0.005 0.00932,0.007 0.011811,0.0118 0.00156,0.003 0,0.0655 0,0.0709 0,0.004 -0.00177,0.008 0,0.0118 0.00249,0.005 0.00932,0.007 0.011811,0.0118 0.00348,0.007 -0.00271,0.0273 0,0.0354 0.00278,0.008 0.00787,0.0157 0.011811,0.0236"
       id="path52"
       inkscape:connector-curvature="0" />
    <path
       style="fill:none;stroke:#000000;stroke-width:0.26458332px;stroke-linecap:butt;stroke-linejoin:miter;stroke-opacity:1"
       d="m 4.3703496,294.14154 c 0.027561,0 0.055334,-0.003 0.082682,0 0.02809,0.004 0.00228,0.0141 0.011811,0.0236 0.010038,0.01 0.025397,0.0136 0.035435,0.0236 0.010038,0.01 0.015105,0.0241 0.023625,0.0354 0.016536,0.022 0.042522,0.037 0.059059,0.0591 0.00235,0.003 -0.00124,0.008 0,0.0118 0.028519,0.0856 -0.00341,-0.0186 0.023625,0.0354 0.00177,0.004 -0.0022,0.009 0,0.0118 0.00881,0.0132 0.034391,0.0344 0.047247,0.0473 0.00394,0.004 0.00932,0.007 0.011811,0.0118 0.00177,0.004 -0.0022,0.009 0,0.0118 0.00618,0.009 0.016941,0.0147 0.023625,0.0236 0.00528,0.007 0.00693,0.0163 0.011811,0.0236 0.00309,0.005 0.00872,0.007 0.011811,0.0118 0.022376,-0.001 0.00787,0.0276 0.011811,0.0354 0.00249,0.005 0.00787,0.008 0.011811,0.0118 0.00923,0.009 0.02864,0.0252 0.035435,0.0354 0.00977,0.0146 0.013856,0.0326 0.023625,0.0472 0.00309,0.005 0.00872,0.007 0.011811,0.0118 0.00488,0.007 0.00693,0.0163 0.011811,0.0236 0.00618,0.009 0.020103,0.0131 0.023625,0.0236 0.019394,0.0582 -0.039329,-0.0196 0.023625,0.0591 0.00696,0.009 0.017447,0.0144 0.023625,0.0236 0.0022,0.003 -0.00177,0.008 0,0.0118 0.00498,0.01 0.017447,0.0144 0.023625,0.0236 0.00488,0.007 0.00693,0.0163 0.011811,0.0236 0.00618,0.009 0.018642,0.0137 0.023625,0.0236 0.00371,0.007 -0.00371,0.0398 0,0.0472 0.00249,0.005 0.00932,0.007 0.011811,0.0118 0.00177,0.004 -0.00146,0.008 0,0.0118 0.00654,0.0164 0.017084,0.0309 0.023625,0.0472 0.00146,0.004 0,0.008 0,0.0118 0.00394,0.008 0.00787,0.0157 0.011811,0.0236"
       id="path54"
       inkscape:connector-curvature="0" />
    <path
       style="fill:none;stroke:#000000;stroke-width:0.26458332px;stroke-linecap:butt;stroke-linejoin:miter;stroke-opacity:1"
       d="m 0.53152902,294.72032 c 0.003937,-0.0158 0.005417,-0.0323 0.0118118,-0.0473 0.005592,-0.0131 0.0172749,-0.0227 0.0236236,-0.0354 0.001574,-0.003 0,-0.0655 0,-0.0709 0,-0.004 -0.001759,-0.008 0,-0.0118 0.0115935,-0.0232 0.022447,-0.005 0.0354353,-0.0118 0.006308,-0.003 0.0292168,-0.0292 0.0354353,-0.0354 0.007875,-0.008 0.0157491,-0.0157 0.0236236,-0.0236 0.003937,-0.004 0.008723,-0.007 0.0118118,-0.0118 0.004884,-0.007 0.006928,-0.0163 0.0118118,-0.0236 0.003089,-0.005 0.007875,-0.008 0.0118118,-0.0118 0.003937,-0.004 0.007179,-0.009 0.0118118,-0.0118 0.017213,-0.0115 0.0246023,-0.007 0.0354353,-0.0236 0.004884,-0.007 0.005586,-0.0174 0.0118118,-0.0236 0.002784,-0.003 0.00829,0.002 0.0118118,0 0.009961,-0.005 0.0143576,-0.0174 0.0236236,-0.0236 0.007325,-0.005 0.0162981,-0.007 0.0236236,-0.0118 0.004633,-0.003 0.007179,-0.009 0.0118118,-0.0118 0.007325,-0.005 0.0162981,-0.007 0.0236236,-0.0118 0.004633,-0.003 0.006832,-0.009 0.0118118,-0.0118 0.0111363,-0.006 0.0242991,-0.006 0.0354353,-0.0118 0.00498,-0.002 0.007875,-0.008 0.0118118,-0.0118 0.006947,-0.007 0.0417773,-0.0445 0.047247,-0.0472 0.003522,-0.002 0.00829,0.002 0.0118118,0 0.005469,-0.003 0.0402992,-0.0403 0.0472462,-0.0472"
       id="path56"
       inkscape:connector-curvature="0" />
    <path
       style="fill:none;stroke:#000000;stroke-width:0.26458332px;stroke-linecap:butt;stroke-linejoin:miter;stroke-opacity:1"
       d="m 0.89769346,292.84225 c -0.007875,0.0158 -0.0180554,0.0305 -0.0236236,0.0473 -0.001995,0.006 0,0.073 0,0.0827 0,0.008 0.003522,0.0166 0,0.0236 -0.00498,0.01 -0.0174464,0.0144 -0.0236236,0.0236 -0.002183,0.003 0,0.008 0,0.0118 0,0.008 0.00191,0.016 0,0.0236 -0.002135,0.009 -0.009677,0.0151 -0.0118118,0.0236 -0.00191,0.008 0,0.0157 0,0.0236 0,0.0197 0,0.0394 0,0.0591 0,0.0433 0,0.0866 0,0.12993 0,0.0102 -0.002281,0.0404 0,0.0472 0.0285191,0.0856 -0.003405,-0.0186 0.0236236,0.0354 0.001759,0.004 0,0.008 0,0.0118 0,0.008 -0.00191,0.016 0,0.0236 0.002135,0.009 0.009677,0.0151 0.0118118,0.0236 0.00191,0.008 0,0.0158 0,0.0236 0,0.004 -0.001759,0.008 0,0.0118 0.00249,0.005 0.007875,0.008 0.0118118,0.0118 0.003937,0.0158 0.005783,0.0322 0.0118118,0.0473 0.002069,0.005 0.008723,0.007 0.0118118,0.0118 0.004884,0.007 0.007875,0.0158 0.0118118,0.0236 0.003937,0.008 0.009028,0.0153 0.0118118,0.0236 0.001246,0.004 -0.001246,0.008 0,0.0118 0.002784,0.008 0.009677,0.0151 0.0118118,0.0236 0.00191,0.008 -0.00249,0.0162 0,0.0236 0.001759,0.005 0.007875,0.008 0.0118118,0.0118 0.007875,0.008 0.0174464,0.0144 0.0236236,0.0236 0.002183,0.003 -0.001759,0.008 0,0.0118 0.00249,0.005 0.008723,0.007 0.0118118,0.0118 0.009767,0.0146 0.0138565,0.0326 0.0236236,0.0472 0.014596,0.0219 0.011812,0.001 0.011812,0.0236"
       id="path58"
       inkscape:connector-curvature="0" />
    <path
       style="fill:none;stroke:#000000;stroke-width:0.26458332px;stroke-linecap:butt;stroke-linejoin:miter;stroke-opacity:1"
       d="m 4.3939732,293.78719 c -0.019791,-0.0549 0.05593,-0.041 0.070871,-0.0709 0.00557,-0.0111 0.00624,-0.0243 0.011811,-0.0354 0.00249,-0.005 0.010052,-0.007 0.011811,-0.0118 0.00498,-0.0149 -0.00704,-0.0332 0,-0.0472 0.00498,-0.01 0.018643,-0.0137 0.023625,-0.0236 0.00352,-0.007 -0.0019,-0.016 0,-0.0236 0.00214,-0.009 0.00903,-0.0153 0.011811,-0.0236 0.00354,-0.0106 -0.00354,-0.0248 0,-0.0354 0.00177,-0.005 0.00932,-0.007 0.011811,-0.0118 0.00352,-0.007 -0.0019,-0.016 0,-0.0236 0.00302,-0.0121 0.00937,-0.0232 0.011811,-0.0354 0.00305,-0.0152 -0.00364,-0.0445 0,-0.0591 -0.023722,-0.021 0.019685,-0.0354 0.023625,-0.0472 0.0018,-0.005 0,-0.0525 0,-0.0591 0,-0.0394 0,-0.0787 0,-0.11811 0,-0.0315 0,-0.063 0,-0.0945 0,-0.003 0.00132,-0.0446 0,-0.0472 -0.00249,-0.005 -0.00787,-0.008 -0.011811,-0.0118"
       id="path60"
       inkscape:connector-curvature="0" />
    <path
       style="fill:#ffffff;stroke:#000000;stroke-width:0.26458332px;stroke-linecap:butt;stroke-linejoin:miter;stroke-opacity:1"
       d="m 1.7481399,293.42102 c 0.027561,0 0.055122,0 0.082682,0 0.00394,0 0.015749,0 0.011812,0 -0.00787,0 -0.023624,0.008 -0.023624,0 0,-0.009 0.017398,-0.006 0.023624,-0.0118 0.00557,-0.006 -0.00437,-0.0171 0,-0.0236 0.00618,-0.009 0.016942,-0.0147 0.023623,-0.0236 0.00528,-0.007 0.00693,-0.0163 0.011812,-0.0236 0.00309,-0.005 0.00787,-0.008 0.011812,-0.0118 0.011812,-0.0118 0.023623,-0.0236 0.035435,-0.0354 3.541e-4,-3.6e-4 0.044862,-0.0425 0.047247,-0.0472 0.00557,-0.0111 0.00301,-0.0266 0.011812,-0.0354 0.033804,-0.0338 0.014794,0.0295 0.035435,-0.0118 0.00176,-0.004 0,-0.008 0,-0.0118 0,-0.008 0,-0.0158 0,-0.0236 0,-0.01 0.00212,-0.0409 0,-0.0473 -0.00693,-0.0208 -0.021029,-0.007 -0.035435,-0.0118 -0.00528,-0.002 -0.00683,-0.009 -0.011812,-0.0118 -0.00526,-0.003 -0.041845,0.002 -0.047247,0 -0.00528,-0.002 -0.00683,-0.009 -0.011812,-0.0118 -0.00526,-0.003 -0.041844,0.002 -0.047247,0 -0.00528,-0.002 -0.00683,-0.009 -0.011812,-0.0118 -0.00625,-0.003 -0.041492,0.001 -0.047247,0 -0.021379,0.007 -0.021968,-0.0191 -0.035435,-0.0236 -0.00308,-10e-4 -0.065168,-0.002 -0.070871,0 -0.00835,0.003 -0.016298,0.007 -0.023624,0.0118 -0.00463,0.003 -0.00787,0.008 -0.011812,0.0118 -0.00394,0.004 -0.00932,0.007 -0.011812,0.0118 -0.010455,0.0209 0.017569,0.004 -0.011812,0.0236 -0.0062,0.004 -0.031566,0.012 -0.035435,0.0236 -0.00199,0.006 0,0.073 0,0.0827 0,0.0236 0,0.0472 0,0.0709 0,0.008 -0.00191,0.016 0,0.0236 0.00577,0.0231 0.011559,0.0471 0.035435,0.0591 0.080662,0.0403 -0.037348,-0.0486 0.047247,0.0118 0.020515,0.0147 0.034736,0.0406 0.059059,0.0472 0.023106,0.006 0.047106,-0.009 0.070871,-0.0118 0.00781,-9.7e-4 0.015749,0 0.023624,0"
       id="path62"
       inkscape:connector-curvature="0" />
    <path
       style="fill:none;stroke:#000000;stroke-width:0.26458332px;stroke-linecap:butt;stroke-linejoin:miter;stroke-opacity:1"
       d="m 1.8426339,293.40922 c 0.035435,-0.0512 0.070122,-0.1029 0.1063058,-0.15356 0.00324,-0.005 0.00787,-0.008 0.011812,-0.0118 0.00394,-0.008 0.00693,-0.0163 0.011812,-0.0236 0.00309,-0.005 0.010051,-0.007 0.011812,-0.0118 0.0018,-0.005 -0.00263,-0.042 0,-0.0472 0.027029,-0.0541 -0.0049,0.0501 0.023624,-0.0354 0.00249,-0.007 0,-0.0157 0,-0.0236 0,-0.0338 0.00406,-0.0627 -0.011812,-0.0945 -0.00498,-0.01 -0.017446,-0.0143 -0.023624,-0.0236 -0.00719,-0.0108 -0.010082,-0.0287 -0.023624,-0.0354 -0.00704,-0.004 -0.015984,0.002 -0.023624,0 -0.012079,-0.003 -0.023356,-0.009 -0.035435,-0.0118 -0.023624,-0.006 0,0.0118 -0.035435,0 -0.00528,-0.002 -0.00653,-0.01 -0.011812,-0.0118 -0.00633,-0.002 -0.085538,0 -0.094494,0 -0.027561,0 -0.055122,0 -0.082682,0 -0.028657,0 -0.045596,-0.005 -0.070871,0.0118 -0.00325,0.002 -0.034606,0.033 -0.035435,0.0354 -0.00498,0.0149 0.00498,0.0323 0,0.0472 -0.00176,0.005 -0.010051,0.007 -0.011812,0.0118 -0.00374,0.0112 0,0.0236 0,0.0354 0,0.0394 0,0.0788 0,0.11812 0,0.008 -0.0017,0.0675 0,0.0709 0.038457,0.0769 0.011838,-0.0236 0.035435,0.0473 0.00418,0.0125 -0.00418,0.0347 0,0.0472 0.00176,0.005 0.00787,0.008 0.011812,0.0118 0.00394,0.004 0.00787,0.008 0.011812,0.0118 0.00394,0.004 0.00787,0.008 0.011812,0.0118 0.00394,0.004 0.00683,0.009 0.011812,0.0118 0.00352,0.002 0.00795,-7.7e-4 0.011812,0 0.035595,0.007 0.070871,0.0157 0.1063058,0.0236"
       id="path64"
       inkscape:connector-curvature="0" />
    <path
       style="fill:none;stroke:#000000;stroke-width:0.26458332px;stroke-linecap:butt;stroke-linejoin:miter;stroke-opacity:1"
       d="m 1.7481399,293.42102 c 0.077409,-0.21287 8.416e-4,-0.0951 0.070871,-0.14174 0.00463,-0.003 0.00683,-0.009 0.011812,-0.0118 0.00742,-0.004 0.039823,0.004 0.047247,0 0.00498,-0.002 0.00787,-0.008 0.011812,-0.0118 0.00787,0 0.015984,0.002 0.023624,0 0.019069,-0.005 0.023428,-0.0116 0.035435,-0.0236 0.00394,-0.004 0.00683,-0.009 0.011812,-0.0118 0.00704,-0.004 0.01658,0.004 0.023623,0 0.00498,-0.002 0.00787,-0.008 0.011812,-0.0118 0.00923,-0.009 0.025243,-0.0286 0.035435,-0.0354 0.00733,-0.005 0.016298,-0.007 0.023624,-0.0118 0.021834,-0.0146 0.00551,-0.0102 0.011812,-0.0354 0.013573,-0.0543 0.011812,-0.003 0.011812,-0.0354 0,-0.01 0.00199,-0.0767 0,-0.0827 -4.895e-4,-0.001 -0.033409,-0.0344 -0.035435,-0.0354 -0.00352,-0.002 -0.00829,0.002 -0.011812,0 -0.00498,-0.002 -0.00653,-0.01 -0.011812,-0.0118 -0.00747,-0.002 -0.015984,0.002 -0.023624,0 -0.027597,-0.007 -0.030413,-0.0259 -0.059059,-0.0354 -0.00374,-0.001 -0.00808,10e-4 -0.011812,0 -0.00835,-0.003 -0.015271,-0.009 -0.023624,-0.0118 -0.00639,-0.002 -0.043223,0 -0.047247,0 -0.035435,0 -0.070871,0 -0.1063058,0 -0.00394,0 -0.00787,0 -0.011812,0 -0.00394,0 -0.00903,-0.003 -0.011812,0 -0.00623,0.006 -0.00693,0.0163 -0.011812,0.0236 -0.00517,0.008 -0.033304,0.029 -0.035435,0.0354 -0.00374,0.0112 0,0.0236 0,0.0354 0,0.0197 0,0.0394 0,0.0591 0,0.0236 0,0.0473 0,0.0709 0,0.008 0,0.0158 0,0.0236 0,0.004 -0.00176,0.008 0,0.0118 0.00249,0.005 0.00932,0.007 0.011812,0.0118 0.00176,0.004 0,0.008 0,0.0118 0,0.008 -0.00249,0.0162 0,0.0236 0.00176,0.005 0.00932,0.007 0.011812,0.0118 0.00176,0.004 -0.00125,0.008 0,0.0118 0.00278,0.008 0.00903,0.0153 0.011812,0.0236 0.00125,0.004 -0.00176,0.008 0,0.0118 0.00249,0.005 0.00683,0.009 0.011812,0.0118 0.00352,0.002 0.00787,0 0.011812,0 0.00394,0 0.00787,0 0.011812,0 0.019686,0 0.039373,0 0.059059,0 0.00394,0 0.00787,0 0.011812,0 0.00394,0 0.01104,-0.004 0.011812,0 0.00776,0.0388 0.00787,0.0788 0.011812,0.11812"
       id="path66"
       inkscape:connector-curvature="0" />
  </g>
</svg>
